{
  "accessors": [
    {
      "bufferView": 2,
      "componentType": 5126,
      "count": 49706,
      "max": [
        0.4311020076274872,
        0.9135003089904785,
        0.4311019480228424
      ],
      "min": [
        -0.4311019480228424,
        0.00023254752159118652,
        -0.4311020076274872
      ],
      "type": "VEC3"
    },
    {
      "bufferView": 2,
      "byteOffset": 596472,
      "componentType": 5126,
      "count": 49706,
      "max": [
        1.0,
        1.0,
        1.0
      ],
      "min": [
        -1.0,
        -1.0,
        -1.0
      ],
      "type": "VEC3"
    },
    {
      "bufferView": 1,
      "componentType": 5126,
      "count": 49706,
      "max": [
        0.8825846910476685,
        0.9454326629638672
      ],
      "min": [
        0.0,
        0.0
      ],
      "type": "VEC2"
    },
    {
      "bufferView": 0,
      "componentType": 5125,
      "count": 96666,
      "type": "SCALAR"
    },
    {
      "bufferView": 2,
      "byteOffset": 1192944,
      "componentType": 5126,
      "count": 7120,
      "max": [
        0.4114089012145996,
        0.7589117884635925,
        0.41140884160995483
      ],
      "min": [
        -0.41140884160995483,
        0.16493359208106995,
        -0.4114089012145996
      ],
      "type": "VEC3"
    },
    {
      "bufferView": 2,
      "byteOffset": 1278384,
      "componentType": 5126,
      "count": 7120,
      "max": [
        1.0,
        0.1556975543498993,
        1.0
      ],
      "min": [
        -1.0,
        -0.16604875028133392,
        -1.0
      ],
      "type": "VEC3"
    },
    {
      "bufferView": 1,
      "byteOffset": 397648,
      "componentType": 5126,
      "count": 7120,
      "max": [
        0.8388624787330627,
        0.7837731242179871
      ],
      "min": [
        0.47961223125457764,
        0.20494699478149414
      ],
      "type": "VEC2"
    },
    {
      "bufferView": 0,
      "byteOffset": 386664,
      "componentType": 5125,
      "count": 13128,
      "type": "SCALAR"
    },
    {
      "bufferView": 2,
      "byteOffset": 1363824,
      "componentType": 5126,
      "count": 1792,
      "max": [
        0.4311020076274872,
        0.8960566520690918,
        0.4311019480228424
      ],
      "min": [
        -0.4311019480228424,
        0.8129327297210693,
        -0.4311020076274872
      ],
      "type": "VEC3"
    },
    {
      "bufferView": 2,
      "byteOffset": 1385328,
      "componentType": 5126,
      "count": 1792,
      "max": [
        1.0,
        1.0,
        1.0
      ],
      "min": [
        -1.0,
        -0.9999762177467346,
        -1.0
      ],
      "type": "VEC3"
    },
    {
      "bufferView": 1,
      "byteOffset": 454608,
      "componentType": 5126,
      "count": 1792,
      "max": [
        0.8825846910476685,
        0.9279890656471252
      ],
      "min": [
        0.47961223125457764,
        0.8558750152587891
      ],
      "type": "VEC2"
    },
    {
      "bufferView": 0,
      "byteOffset": 439176,
      "componentType": 5125,
      "count": 2766,
      "type": "SCALAR"
    }
  ],
  "asset": {
    "extras": {
      "author": "k3ddesign (https://sketchfab.com/K3DDesign)",
      "license": "CC-BY-4.0 (http://creativecommons.org/licenses/by/4.0/)",
      "source": "https://sketchfab.com/3d-models/apartment-buildinghotel-57bafbfd892c41749755aefda20e348b",
      "title": "Apartment building/Hotel"
    },
    "generator": "Sketchfab-15.55.0",
    "version": "2.0"
  },
  "bufferViews": [
    {
      "buffer": 0,
      "byteLength": 450240,
      "name": "floatBufferViews",
      "target": 34963
    },
    {
      "buffer": 0,
      "byteLength": 468944,
      "byteOffset": 450240,
      "byteStride": 8,
      "name": "floatBufferViews",
      "target": 34962
    },
    {
      "buffer": 0,
      "byteLength": 1406832,
      "byteOffset": 919184,
      "byteStride": 12,
      "name": "floatBufferViews",
      "target": 34962
    }
  ],
  "buffers": [
    {
      "byteLength": 2326016,
      "uri": "scene.bin"
    }
  ],
  "extensionsUsed": [
    "KHR_materials_transmission"
  ],
  "images": [
    {
      "uri": "textures/face_baseColor.jpeg"
    }
  ],
  "materials": [
    {
      "doubleSided": true,
      "name": "face",
      "pbrMetallicRoughness": {
        "baseColorTexture": {
          "index": 0
        },
        "metallicFactor": 0.0,
        "roughnessFactor": 0.8211145618000169
      }
    },
    {
      "alphaMode": "BLEND",
      "doubleSided": true,
      "extensions": {
        "KHR_materials_transmission": {
          "transmissionFactor": 0.09942582682156753
        }
      },
      "name": "window",
      "pbrMetallicRoughness": {
        "baseColorFactor": [
          1.0,
          1.0,
          1.0,
          0.9005741731784325
        ],
        "baseColorTexture": {
          "index": 0
        },
        "metallicFactor": 0.0,
        "roughnessFactor": 0.8040408205773457
      }
    },
    {
      "doubleSided": true,
      "name": "roof",
      "pbrMetallicRoughness": {
        "baseColorFactor": [
          0.0368897,
          0.0251873,
          0.0144438,
          1.0
        ],
        "metallicFactor": 0.0,
        "roughnessFactor": 0.9939850778664436
      }
    }
  ],
  "meshes": [
    {
      "name": "Firefly face of an apartment building directly facing the c.002_face_0",
      "primitives": [
        {
          "attributes": {
            "NORMAL": 1,
            "POSITION": 0,
            "TEXCOORD_0": 2
          },
          "indices": 3,
          "material": 0,
          "mode": 4
        }
      ]
    },
    {
      "name": "Firefly face of an apartment building directly facing the c.002_window_0",
      "primitives": [
        {
          "attributes": {
            "NORMAL": 5,
            "POSITION": 4,
            "TEXCOORD_0": 6
          },
          "indices": 7,
          "material": 1,
          "mode": 4
        }
      ]
    },
    {
      "name": "Firefly face of an apartment building directly facing the c.002_roof_0",
      "primitives": [
        {
          "attributes": {
            "NORMAL": 9,
            "POSITION": 8,
            "TEXCOORD_0": 10
          },
          "indices": 11,
          "material": 2,
          "mode": 4
        }
      ]
    }
  ],
  "nodes": [
    {
      "children": [
        1
      ],
      "matrix": [
        1.0,
        0.0,
        0.0,
        0.0,
        0.0,
        2.220446049250313e-16,
        -1.0,
        0.0,
        0.0,
        1.0,
        2.220446049250313e-16,
        0.0,
        0.0,
        0.0,
        0.0,
        1.0
      ],
      "name": "Sketchfab_model"
    },
    {
      "children": [
        2
      ],
      "matrix": [
        0.009999999776482582,
        0.0,
        0.0,
        0.0,
        0.0,
        0.0,
        0.009999999776482582,
        0.0,
        0.0,
        -0.009999999776482582,
        0.0,
        0.0,
        0.0,
        0.0,
        0.0,
        1.0
      ],
      "name": "98fc72e0c1ae469285583706712c37ee.fbx"
    },
    {
      "children": [
        3
      ],
      "name": "RootNode"
    },
    {
      "children": [
        4,
        5,
        6
      ],
      "matrix": [
        99.99999999999838,
        4.371137762859622e-06,
        -1.7484555314695083e-05,
        0.0,
        -4.3711369985853744e-06,
        99.99999999999982,
        4.371139539216461e-06,
        0.0,
        1.748455550576358e-05,
        -4.371138774942523e-06,
        99.99999999999838,
        0.0,
        1.688814290235624e-15,
        0.0,
        0.0,
        1.0
      ],
      "name": "Firefly face of an apartment building directly facing the c.002"
    },
    {
      "mesh": 0,
      "name": "Firefly face of an apartment building directly facing the c.002_face_0"
    },
    {
      "mesh": 1,
      "name": "Firefly face of an apartment building directly facing the c.002_window_0"
    },
    {
      "mesh": 2,
      "name": "Firefly face of an apartment building directly facing the c.002_roof_0"
    }
  ],
  "samplers": [
    {
      "magFilter": 9729,
      "minFilter": 9987,
      "wrapS": 10497,
      "wrapT": 10497
    }
  ],
  "scene": 0,
  "scenes": [
    {
      "name": "Sketchfab_Scene",
      "nodes": [
        0
      ]
    }
  ],
  "textures": [
    {
      "sampler": 0,
      "source": 0
    }
  ]
}
